<?xml version="1.0" encoding="iso-8859-1"?>
<!-- Uploaded to: SVG Repo, www.svgrepo.com, Generator: SVG Repo Mixer Tools -->
<svg height="800px" width="800px" version="1.1" id="Layer_1" xmlns="http://www.w3.org/2000/svg" xmlns:xlink="http://www.w3.org/1999/xlink" 
	 viewBox="0 0 512 512" xml:space="preserve">
<path style="fill:#C3E678;" d="M484.551,143.163C452.489,63.52,374.486,7.342,283.385,7.514l0.407,216.391L484.551,143.163z"/>
<path style="fill:#9BE6D2;" d="M243.433,71.705c-49.128,0.092-94.393,16.56-130.663,44.213l131.064,169.409L243.433,71.705z"/>
<path style="fill:#00D2FF;" d="M444.599,207.354L245.47,287.44l7.812,10.098l-7.812-10.097l-1.63,0.655l-0.005-2.769
	L112.771,115.918C60.809,155.534,27.317,218.12,27.449,288.502c0.224,119.509,97.288,216.209,216.798,215.985
	c119.509-0.224,216.209-97.288,215.985-216.798C460.177,259.281,454.597,232.189,444.599,207.354z"/>
<path style="fill:#18BDF6;" d="M63.656,252.295c-0.095-50.644,17.22-97.249,46.297-134.167
	c-50.344,39.713-82.633,101.278-82.503,170.373c0.224,119.509,97.288,216.209,216.798,215.985
	c68.824-0.129,130.077-32.381,169.617-82.534c-36.718,28.932-83.037,46.233-133.41,46.327
	C160.944,468.504,63.88,371.805,63.656,252.295z"/>
<path d="M441.796,200.383l-190.463,76.601l-0.386-205.292c-0.008-4.146-3.37-7.5-7.514-7.5c-0.005,0-0.01,0-0.015,0
	C183.611,64.304,127.427,87.7,85.217,130.07c-42.209,42.368-65.394,98.639-65.281,158.446
	c0.112,59.729,23.459,115.862,65.74,158.058C127.951,488.764,184.119,512,243.831,512h0.431
	c59.807-0.112,115.991-23.509,158.201-65.878s65.395-98.64,65.283-158.447c-0.054-28.633-5.496-56.6-16.175-83.128
	C450.019,200.699,445.643,198.835,441.796,200.383z M236.284,265.85L122.963,117.695c32.96-23.485,71.92-36.811,112.971-38.33
	L236.284,265.85z M391.816,435.517c-39.377,39.527-91.79,61.352-147.583,61.457h-0.402c-114.954,0-208.652-93.525-208.868-208.484
	c-0.104-55.793,21.524-108.288,60.901-147.814c4.866-4.884,9.935-9.492,15.18-13.828l126.827,165.814
	c0.062,0.082,0.133,0.152,0.198,0.23c0.093,0.111,0.184,0.222,0.284,0.329c0.117,0.125,0.24,0.242,0.364,0.359
	c0.091,0.085,0.18,0.171,0.277,0.252c0.148,0.126,0.304,0.24,0.46,0.354c0.063,0.046,0.12,0.098,0.185,0.142
	c0.023,0.015,0.047,0.026,0.07,0.041c0.175,0.115,0.357,0.218,0.54,0.318c0.08,0.043,0.157,0.092,0.238,0.132
	c0.196,0.097,0.398,0.18,0.601,0.26c0.074,0.029,0.146,0.065,0.22,0.091c0.242,0.086,0.49,0.156,0.738,0.217
	c0.038,0.009,0.074,0.024,0.112,0.032c0.286,0.065,0.574,0.113,0.865,0.144c0.09,0.01,0.181,0.009,0.271,0.015
	c0.183,0.013,0.366,0.031,0.549,0.031c0.016,0,0.032-0.004,0.049-0.004c0.354-0.002,0.707-0.031,1.06-0.084
	c0.105-0.016,0.209-0.043,0.315-0.063c0.25-0.049,0.499-0.108,0.745-0.182c0.128-0.039,0.254-0.081,0.381-0.126
	c0.083-0.03,0.167-0.05,0.249-0.083l193.666-77.889c8.191,22.641,12.361,46.329,12.407,70.526
	C452.823,343.496,431.194,395.99,391.816,435.517z"/>
<path d="M491.522,140.357c-16.494-40.97-44.5-75.904-80.994-101.028c-1.752-1.206-3.522-2.376-5.303-3.529
	c-0.077-0.053-0.156-0.103-0.235-0.152C368.856,12.31,327.104,0,283.8,0h-0.43c-1.993,0.004-3.902,0.799-5.309,2.211
	c-1.407,1.412-2.194,3.324-2.191,5.317l0.06,32.056c0,0.002,0,0.003,0,0.003l0.075,40.067v0.007l0.075,40.065v0.009l0.075,40.062
	v0.01l0.075,40.061v0.011l0.045,24.037c0.005,2.494,1.246,4.822,3.313,6.216c1.259,0.85,2.725,1.283,4.201,1.283
	c0.947,0,1.899-0.179,2.803-0.543l22.585-9.083c0.064,0.002,0.127,0.009,0.191,0.009c1.927,0,3.855-0.737,5.323-2.211l0.027-0.027
	l65.296-26.262c0.024-0.01,0.047-0.019,0.071-0.028l66.661-26.809c0.027-0.011,0.055-0.022,0.082-0.033l40.523-16.297
	c1.849-0.743,3.327-2.192,4.108-4.025C492.245,144.275,492.265,142.205,491.522,140.357z M408.381,165.698l52.477-52.674
	c2.419,3.883,4.721,7.863,6.899,11.932l-28.031,28.135L408.381,165.698z M412.948,59.528L291.227,181.707l-0.035-18.82
	L402.105,51.554C405.803,54.094,409.419,56.752,412.948,59.528z M290.965,42.669l25.081-25.177
	c5.312,0.818,10.566,1.834,15.753,3.046L291,61.491L290.965,42.669z M291.04,82.742l57.374-57.589c4.669,1.508,9.274,3.175,13.803,5
	l-71.142,71.41L291.04,82.742z M291.115,122.814l85.758-86.082c4.152,2.06,8.231,4.254,12.228,6.583l-97.951,98.32L291.115,122.814z
	 M296.884,15.437l-5.959,5.982l-0.012-6.272C292.91,15.213,294.899,15.315,296.884,15.437z M291.266,202.958l133.18-133.682
	c3.274,2.985,6.46,6.077,9.545,9.277L306.253,206.772l-14.968,6.02L291.266,202.958z M444.037,89.761
	c2.855,3.425,5.609,6.949,8.253,10.571l-79.301,79.6l-31.344,12.606L444.037,89.761z"/>
</svg>